<?xml version="1.0" standalone="no"?>
<!DOCTYPE svg PUBLIC "-//W3C//DTD SVG 1.1//EN" "http://www.w3.org/Graphics/SVG/1.1/DTD/svg11.dtd" >
<svg xmlns="http://www.w3.org/2000/svg">
<metadata>Generated by IcoMoon</metadata>
<defs>
<font id="icomoon" horiz-adv-x="1024">
<font-face units-per-em="1024" ascent="960" descent="-64" />
<missing-glyph horiz-adv-x="1024" />
<glyph unicode="&#x20;" horiz-adv-x="512" d="" />
<glyph unicode="&#xe900;" glyph-name="countdown" d="M511.607 865.231c-230.311 0-416.838-186.919-416.838-417.231s186.527-417.231 416.838-417.231c230.704 0 417.623 186.919 417.623 417.231s-186.919 417.231-417.623 417.231v0zM512 64.148c-212.071 0-383.852 171.781-383.852 383.852s171.781 383.852 383.852 383.852c212.071 0 383.823-171.781 383.823-383.852s-171.752-383.852-383.823-383.852v0zM529.347 638.522h-52.149v-208.596l182.561-109.491 26.074 42.734-156.486 92.831v182.521z" />
<glyph unicode="&#xe901;" glyph-name="paly" d="M415.065 229.913l290.783 218.087-290.783 218.087v-436.174zM512 932.63c-267.52 0-484.63-217.11-484.63-484.63 0-267.542 217.11-484.653 484.63-484.653 267.542 0 484.653 217.11 484.653 484.653 0 267.52-217.11 484.63-484.653 484.63v0zM512 11.804c-240.444 0-436.174 195.753-436.174 436.196s195.73 436.174 436.174 436.174 436.196-195.73 436.196-436.174-195.753-436.196-436.196-436.196v0z" />
<glyph unicode="&#xe902;" glyph-name="qq" d="M512-50.526c-274.89 0-498.526 223.636-498.526 498.526s223.636 498.526 498.526 498.526 498.526-223.636 498.526-498.526-223.636-498.526-498.526-498.526zM512 919.579c-260.015 0-471.579-211.564-471.579-471.579s211.564-471.579 471.579-471.579 471.579 211.564 471.579 471.579-211.564 471.579-471.579 471.579zM281.762 532.13c-3.341-9.135 1.563-14.956 0-49.826-0.404-9.378-39.262-51.847-54.649-95.96-15.279-43.736-17.408-89.438 6.198-107.412 23.606-17.947 45.541 59.823 48.451 48.478 1.24-4.931 2.803-10.051 4.689-15.306 7.572-21.181 20.237-44.652 38.643-66.587 3.719-4.446-22.744-12.638-38.643-40.798-15.872-28.133 4.554-79.252 83.51-79.252 101.861 0 124.632 37.295 126.707 37.16 7.572-0.62 8.111 0 16.141 0 9.836 0 5.767-0.835 14.929 0 4.931 0.431 54.461-44.679 122.961-37.16 116.763 12.8 98.897 53.544 89.735 79.252-9.566 26.867-43.385 39.451-41.903 41.149 27.971 32.202 32.418 51.981 41.903 81.516 3.907 12.153 30.989-66.829 51.874-48.478 8.677 7.68 26.085 39.667 8.677 107.412-17.408 67.773-51.011 83.24-50.284 95.96 1.536 26.435 0.62 45.002-0.62 49.826-6.198 23.309-19.213 18.163-19.213 23.309 0 134.144-96.822 242.877-216.253 242.877-119.458 0-216.307-108.733-216.307-242.877-0.027-10.617-9.108-2.749-16.546-23.283z" />
<glyph unicode="&#xe903;" glyph-name="qzone" d="M512-50.526c-274.89 0-498.526 223.636-498.526 498.526s223.636 498.526 498.526 498.526 498.526-223.636 498.526-498.526-223.636-498.526-498.526-498.526zM512 919.579c-260.015 0-471.579-211.564-471.579-471.579s211.564-471.579 471.579-471.579 471.579 211.564 471.579 471.579-211.564 471.579-471.579 471.579zM510.841 259.341c0 0-187.419-114.877-199.006-105.499-11.587 9.405 37.996 223.421 37.996 223.421s-167.855 140.908-161.011 158.235c6.872 17.3 222.477 32.579 222.477 32.579s80.141 203.291 99.544 203.291c19.375 0 99.49-203.264 99.49-203.264s216.522-15.387 222.504-32.579-161.011-158.235-161.011-158.235 2.075-13.689 4.5-23.848c0.162-0.674-77.959-2.506-141.959 0-33.603 1.267-74.078 7.545-74.078 7.545l185.29 133.201c0 0-66.991 12.153-134.737 14.605-74.186 2.668-150.151-4.527-161.011-7.303-6.791-1.752 47.993-1.617 110.457-7.303 43.763-3.988 101.349-14.605 101.349-14.605l-185.29-139.075c0 0 36.999-6.629 168.502-3.773 131.476 2.856 176.209 13.069 176.263 12.908 0.081-0.377-8.893-4.958-18.728-6.818-10.725-2.048-21.369-5.659-21.261-6.117 14.067-61.656 38.157-173.245 28.699-182.919-13.043-13.285-198.979 105.553-198.979 105.553z" />
<glyph unicode="&#xe904;" glyph-name="weibo" d="M512-50.526c-274.89 0-498.526 223.636-498.526 498.526s223.636 498.526 498.526 498.526 498.526-223.636 498.526-498.526-223.636-498.526-498.526-498.526zM512 919.579c-260.015 0-471.579-211.564-471.579-471.579s211.564-471.579 471.579-471.579 471.579 211.564 471.579 471.579-211.564 471.579-471.579 471.579zM433.556 207.117c-113.61-5.309-205.447 51.631-205.447 127.461 0 75.884 91.81 136.731 205.447 141.986 113.664 5.228 205.689-41.607 205.689-117.329 0-75.803-92.025-146.971-205.689-152.118zM675.409 453.363c-26.974 5.255-13.851 19.752-13.851 19.752s26.408 43.52-5.201 75.183c-39.208 39.181-134.467-5.012-134.467-5.012-36.379-11.264-26.759 5.174-21.585 33.145 0 32.984-11.291 88.765-108.221 55.808-96.795-33.118-179.901-149.208-179.901-149.208-57.802-77.123-50.149-136.758-50.149-136.758 14.444-131.638 154.301-167.747 263.060-176.29 114.445-8.973 268.908 39.451 315.715 138.914 46.835 99.651-38.292 139.075-65.401 144.465zM449.428 333.743c-7.222-5.389-16.115-4.662-19.941 1.805-3.961 6.306-2.479 16.438 4.824 21.773 8.461 6.306 17.273 4.473 21.073-1.832 3.853-6.494 1.105-16.195-5.955-21.747zM382.087 276.345c-21.342-2.506-38.535 9.809-38.535 27.648 0 17.785 15.252 36.379 36.621 38.616 24.495 2.344 40.448-11.803 40.448-29.669-0.027-17.731-17.3-34.169-38.535-36.595zM410.893 426.577c-114.257-13.366-101.053-120.428-101.053-120.428s-1.159-33.9 30.639-51.146c66.856-36.217 135.68-14.255 170.496 30.639 34.762 44.948 14.336 154.193-100.083 140.935zM731.082 499.712c9.243 0 17.031 6.818 18.351 15.71 0.189 0.647 0.269 1.24 0.269 1.994 13.959 125.467-102.777 103.882-102.777 103.882-10.375 0-18.675-8.408-18.675-18.836 0-10.294 8.327-18.675 18.675-18.675 83.833 18.513 65.347-65.347 65.347-65.347-0.027-10.402 8.408-18.728 18.809-18.728zM717.474 718.713c-40.367 9.459-81.893 1.32-93.534-0.916-0.889-0.081-1.725-0.943-2.587-1.105-0.404-0.081-0.62-0.512-0.62-0.512-11.48-3.234-19.86-13.851-19.86-26.381 0-14.929 12.126-27.244 27.244-27.244 0 0 14.686 1.967 24.684 5.875 9.863 3.961 93.48 2.964 135.033-66.803 22.663-50.904 9.971-84.965 8.381-90.408 0 0-5.389-13.258-5.389-26.274 0-15.037 12.099-24.468 27.136-24.468 12.557 0 23.067 1.698 26.193 22.959h0.162c44.517 148.615-54.622 218.435-126.841 235.277z" />
<glyph unicode="&#xe905;" glyph-name="weixin" d="M512-50.526c-274.89 0-498.526 223.636-498.526 498.526s223.636 498.526 498.526 498.526 498.526-223.636 498.526-498.526-223.636-498.526-498.526-498.526zM512 919.579c-260.015 0-471.579-211.564-471.579-471.579s211.564-471.579 471.579-471.579 471.579 211.564 471.579 471.579-211.564 471.579-471.579 471.579zM342.771 563.308c-17.112 0-34.385 11.453-34.385 28.591 0 17.192 17.273 28.51 34.385 28.51s28.51-11.318 28.51-28.51c0-17.112-11.399-28.591-28.51-28.591zM502.568 620.382c17.192 0 28.564-11.318 28.564-28.51 0-17.112-11.372-28.591-28.564-28.591-17.112 0-34.277 11.453-34.277 28.591-0.027 17.219 17.165 28.51 34.277 28.51zM625.314 558.484c7.411 0 14.74-0.539 21.989-1.347-19.725 91.998-118.083 160.337-230.346 160.337-125.521 0-228.325-85.531-228.325-194.183 0-62.707 34.196-114.203 91.379-154.139l-22.851-68.689 79.818 40.017c28.564-5.659 51.469-11.453 79.98-11.453 7.168 0 14.255 0.323 21.342 0.889-4.473 15.252-7.060 31.259-7.060 47.832-0.027 99.786 85.639 180.736 194.075 180.736zM702.383 409.115c-11.291 0-22.663 11.318-22.663 22.851 0 11.372 11.372 22.824 22.663 22.824 17.139 0 28.591-11.453 28.591-22.824 0-11.533-11.453-22.851-28.591-22.851zM576.808 409.115c-11.345 0-22.851 11.318-22.851 22.851 0 11.372 11.507 22.824 22.851 22.824 17.3 0 28.591-11.453 28.591-22.824 0-11.533-11.291-22.851-28.591-22.851zM833.698 380.524c0 91.298-91.352 165.699-193.94 165.699-108.625 0-194.183-74.402-194.183-165.699 0-91.459 85.531-165.672 194.183-165.672 22.744 0 45.676 5.74 68.5 11.453l62.653-34.277-17.192 57.048c45.864 34.385 79.98 79.98 79.98 131.449z" />
<glyph unicode="&#xe90b;" glyph-name="clock-solid" d="M827.628 94.693c-16.239 15.613-42.541 15.613-58.766 0-16.253-15.613-16.253-40.872 0-56.433l70.875-69.507c8.106-7.845 18.742-11.69 29.377-11.69 10.621 0 21.269 3.858 29.389 11.69 16.215 15.575 16.215 40.848 0 56.448l-70.875 69.494zM183.55 98.445l-68.907-71.449c-7.769-8.184-11.614-18.884-11.614-29.625 0-10.7 3.845-21.441 11.614-29.625 15.459-16.345 40.521-16.345 55.99 0l68.92 71.449c15.47 16.383 15.47 42.868 0 59.251-15.482 16.355-40.546 16.355-56.005 0zM297.134 889.802c17.737 9.631 28.869 23.004 20.554 44.927-5.814 15.286-21.922 24.661-40.69 20.619-16.5-3.467-193.466-76.232-258.009-255.597-6.739-18.742 2.151-39.658 19.939-46.751 4.065-1.629 8.198-2.398 12.305-2.398 13.891 0 26 9.254 32.243 23.317 67.852 152.828 184.683 200.114 213.656 215.883zM511.725 895.448c-234.327 0-424.977-188.515-424.977-420.221 0-231.719 190.638-420.234 424.977-420.234s424.989 188.515 424.989 420.234c0.013 231.706-190.638 420.221-424.989 420.221zM687.754 293.581c-12.995-12.981-34.054-12.981-47.012 0l-159.529 148.073c-0.117 0.13-0.196 0.261-0.298 0.351-5.394 4.628-8.721 11.259-8.721 19.98l-0.495 151.89c0 18.364 14.898 33.262 33.262 33.262s33.262-14.898 33.262-33.262v-134.336l149.543-138.936c12.981-12.981 12.981-34.068-0.013-47.025zM1001.855 699.752c-65.127 179.365-243.711 252.129-260.379 255.611-18.936 4.040-35.202-5.329-41.043-20.619-8.394-21.935 2.866-35.294 20.751-44.927 29.221-15.772 147.134-63.068 215.584-215.869 6.295-14.063 18.506-23.317 32.543-23.317 4.131 0 8.302 0.756 12.421 2.398 17.986 7.065 26.914 27.997 20.125 46.723z" />
<glyph unicode="&#xe90c;" glyph-name="colock-hollow" d="M512.256 877.696c-234.624 0-425.472-187.179-425.472-417.237 0-230.144 190.891-417.28 425.472-417.28s425.515 187.179 425.515 417.28c0 230.059-190.933 417.237-425.515 417.237zM513.28 114.688c-189.568 0-343.765 154.325-343.765 344.107s154.197 344.192 343.765 344.192 343.851-154.411 343.851-344.192-154.283-344.107-343.851-344.107zM527.787 487.211v135.893c0 22.4-19.157 40.704-42.709 40.704-23.595 0-42.709-18.261-42.709-40.704v-169.515l193.195-184.875c8.277-7.979 19.243-11.861 30.165-11.861s21.931 3.925 30.251 11.861c16.683 15.915 16.683 41.643 0 57.472l-168.192 161.024zM828.501 82.603c-16.256 15.488-42.581 15.488-58.837 0-16.256-15.445-16.256-40.576 0-56.021l70.912-68.992c8.149-7.765 18.816-11.563 29.397-11.563 10.667 0 21.333 3.84 29.355 11.563 16.256 15.488 16.256 40.576 0 56.021l-70.827 68.992zM304.213 869.547c24.619 11.648 31.573 27.947 27.605 48.256-3.883 20.437-22.869 33.621-42.581 29.44-17.323-3.584-196.779-74.795-268.117-255.701-7.595-19.285 2.261-41.173 20.949-48.512 4.267-1.707 8.576-2.475 12.928-2.475 14.592 0 29.227 9.173 36.779 23.211 83.925 155.989 196.309 198.144 212.437 205.781zM995.243 684.757c-57.515 162.688-227.84 237.653-243.456 243.669-17.323 6.656-43.392 2.475-50.56-20.437-6.187-19.712 2.816-36.608 26.069-48.256 15.232-7.637 140.416-58.88 206.421-205.995 12.843-28.587 42.624-21.547 46.677-19.883 17.792 7.296 21.675 31.531 14.848 50.901zM183.765 86.315l-68.992-70.912c-7.808-8.107-11.605-18.773-11.605-29.44 0-10.581 3.84-21.248 11.605-29.355 15.445-16.256 40.533-16.256 56.021 0l68.992 70.997c15.488 16.256 15.488 42.581 0 58.837-15.488 16.213-40.619 16.171-56.021-0.128z" />
<glyph unicode="&#xe90e;" glyph-name="channel" d="M9 950.6h264.9v-265h-264.9v265zM9 314.8h264.9v265h-264.9v-265zM9-56.2h264.9v265h-264.9v-265zM379.9 685.7h265v264.9h-265v-264.9zM379.9 314.8h265v265h-265v-265zM379.9-56.2h265v265h-265v-265zM750.8 950.6v-265h264.9v265h-264.9zM750.8 314.8h264.9v265h-264.9v-265zM750.8-56.2h264.9v265h-264.9v-265z" />
<glyph unicode="&#xe90f;" glyph-name="sreach" d="M989 37.6l-236.8 236.8c-1.1 1.1-2.2 2-3.3 3 52 68.3 82.9 153.6 82.9 246.1 0 224.7-182.2 406.9-406.9 406.9-224.8 0-406.9-182.2-406.9-406.9s182.2-406.9 406.9-406.9c92.2 0 177.1 30.7 245.3 82.3 1-1.2 2-2.3 3.1-3.4l236.8-236.8c21.8-21.8 57.1-21.8 78.9 0 21.8 21.7 21.8 57.1 0 78.9zM424.8 232.8c-160.5 0-290.7 130.1-290.7 290.7 0 160.5 130.1 290.7 290.7 290.7 160.5 0 290.7-130.1 290.7-290.7s-130.1-290.7-290.7-290.7z" />
<glyph unicode="&#xe910;" glyph-name="double-left" d="M606.88 764.256l-344.928-320.928 339.712-316-62.368-57.984-405.952 377.632 407.872 379.584 65.664-62.304zM890.656 764.352l-344.928-320.928 339.68-316.032-62.304-57.984-405.952 377.664 407.872 379.584 65.632-62.304z" />
<glyph unicode="&#xe911;" glyph-name="double-right" d="M482.784 826.56l407.904-379.584-405.984-377.632-62.368 57.984 339.712 316.064-344.928 320.864 65.664 62.304zM198.976 826.656l407.904-379.584-405.984-377.664-62.304 58.016 339.68 316.032-344.928 320.896 65.632 62.304z" />
<glyph unicode="&#xe912;" glyph-name="user" d="M513 948.3c-276.9 0-501.4-224.4-501.4-501.3s224.5-501.3 501.3-501.3c276.9 0 501.3 224.5 501.3 501.3 0.1 276.9-224.3 501.3-501.2 501.3zM513 781.2c92.3 0 167.1-74.8 167.1-167.1s-74.8-167.1-167.1-167.1c-92.3 0-167.1 74.8-167.1 167.1s74.8 167.1 167.1 167.1zM513 112.8c-175.4 0-300.8 78.3-300.8 133.7s125.4 133.7 300.8 133.7c175.4 0 300.8-78.3 300.8-133.7s-125.5-133.7-300.8-133.7z" />
<glyph unicode="&#xe913;" glyph-name="help" d="M928.6 951h-830.4c-32.8 0-59.3-26.6-59.3-59.3v-771.1c0-32.8 26.6-59.3 59.3-59.3h281.7l133.5-118.6 118.6 118.6h296.6c32.8 0 59.3 26.5 59.3 59.3v771.1c0 32.7-26.6 59.3-59.3 59.3zM554.8 239.9h-98.2v88.9h98.2v-88.9zM593.6 476.1c-34.5-22-50.9-47.4-49.1-76.2v-17.8h-77.5v20.3c-1.7 50.8 22.4 94 72.4 129.6 48.2 32.2 69.8 66.1 64.6 101.7-5.2 40.6-31 62.6-77.5 66-62 1.7-98.2-28.8-108.6-91.5l-82.7 22.9c22.4 99.9 88.7 147.4 199 142.3 96.5-5.1 149-52.5 157.7-142.3 1.6-55.9-31.1-107.6-98.3-155z" />
<glyph unicode="&#xe914;" glyph-name="left" d="M706.6-44c9.5-9.5 25.3-9.3 35.1 0.6l67.8 67.8c9.9 9.9 10.1 25.6 0.6 35.1l-379.3 385.8 378.4 393.3c9.5 9.4 9.2 25-0.5 34.8l-67.1 67.1c-9.7 9.7-25.3 10-34.8 0.5l-407.5-423.5-55.3-55.2c-9.9-9.9-10.1-25.6-0.6-35.2l463.2-471.1z" />
<glyph unicode="&#xe915;" glyph-name="right" d="M346.9 940.9c-9.5 9.5-25.3 9.3-35.1-0.6l-67.8-67.7c-9.9-9.9-10.1-25.6-0.6-35.1l379.3-385.8-378.3-393.4c-9.5-9.4-9.2-25 0.5-34.8l67.1-67.1c9.7-9.7 25.3-10 34.8-0.5l407.4 423.4 55.3 55.2c9.9 9.9 10.1 25.6 0.6 35.2l-463.2 471.2z" />
<glyph unicode="&#xe916;" glyph-name="kefu" d="M1015.1 539v-143.7c0-13.4-3.2-26-8.4-37.5-36.2-197-187.3-353.6-381.2-398.3-11.7-8.4-26-13.3-41.5-13.3h-143.7c-39.7 0-71.9 32.1-71.9 71.9 0 39.6 32.2 71.9 71.9 71.9h143.7c31.3 0 57.7-20.2 67.5-48.2 124.6 42.6 223.6 140.4 267.4 264.4-46.6 3.3-83.4 47.5-83.4 95v137.8c0 42.6 29.7 78 69.4 87.3-67.6 149.7-217.8 254.1-392.8 254.1-174.9 0-325.1-104.4-392.6-254.1 39.6-9.4 69.2-44.8 69.2-87.2v-143.7c0-49.6-40.2-89.8-89.8-89.8s-89.8 40.2-89.8 89.8v143.6c0 22.8 8.8 43.4 22.8 59.2 63.5 205 254.4 354 480.2 354 226.1 0 417.3-149.2 480.6-354.5 13.8-15.8 22.4-36.1 22.4-58.7z" />
<glyph unicode="&#xe917;" glyph-name="top" d="M511.2 868.2c19.5 0 35.4-15.9 35.4-35.4v-814.3c0-19.6-15.9-35.4-35.4-35.4-19.6 0-35.4 15.8-35.4 35.4v814.3c0 19.5 15.8 35.4 35.4 35.4zM536.2 904.3l471.4-471.4c13.8-13.8 13.8-36.3 0-50.1s-36.2-13.8-50.1 0l-471.3 471.4c-13.8 13.8-13.8 36.3 0 50.1s36.2 13.8 50 0zM536.2 854.2l-471.3-471.3c-13.9-13.9-36.3-13.9-50.1 0-13.8 13.8-13.8 36.2 0 50l471.4 471.4c13.8 13.8 36.2 13.8 50.1 0 13.8-13.8 13.8-36.2-0.1-50.1z" />
<glyph unicode="&#xe918;" glyph-name="close" d="M97.4 945.7l913.7-913.7-83.1-83.1-913.7 913.7 83.1 83.1zM928 945.7l83.1-83.1-913.7-913.7-83.1 83.1 913.7 913.7z" />
<glyph unicode="&#xe919;" glyph-name="checkmark" d="M864 832l-480-480-224 224-160-160 384-384 640 640z" />
<glyph unicode="&#xe91a;" glyph-name="play2" d="M512 941.659c-272.641 0-493.659-221.018-493.659-493.659s221.018-493.659 493.659-493.659 493.659 221.018 493.659 493.659-221.018 493.659-493.659 493.659zM365.233 221.187v440.291l386.924-220.153-386.924-220.138z" />
</font>
</defs>
</svg>
